<?xml version="1.0" encoding="UTF-8"?>
<svg id="Rotating" xmlns="http://www.w3.org/2000/svg" viewBox="0 0 568.84 568.84">
  <defs>
    <style>
      .cls-1 {
        fill: #67dbd2;
        font-family: Jungle-Hope, 'Jungle Hope';
        font-size: 30px;
        stroke: #1f7569;
        stroke-miterlimit: 10;
        stroke-width: 1.3px;
      }

      .cls-2 {
        fill: #ececec;
      }
    </style>
  </defs>
  <g id="Congratz">
    <path class="cls-2" d="m284.42,57.46c60.62,0,117.62,23.61,160.49,66.48,42.87,42.87,66.48,99.86,66.48,160.49s-23.61,117.62-66.48,160.49c-42.87,42.87-99.86,66.48-160.49,66.48s-117.62-23.61-160.49-66.48c-42.87-42.87-66.48-99.86-66.48-160.49s23.61-117.62,66.48-160.49c42.87-42.87,99.86-66.48,160.49-66.48m0-56.5C127.87.96.96,127.87.96,284.42s126.91,283.46,283.46,283.46,283.46-126.91,283.46-283.46S440.98.96,284.42.96h0Z"/>
    <text class="cls-1" transform="translate(104.29 93.23) rotate(134.62)"><tspan x="0" y="0">C</tspan></text>
    <text class="cls-1" transform="translate(90.06 107.67) rotate(130.06)"><tspan x="0" y="0">o</tspan></text>
    <text class="cls-1" transform="translate(76.04 124.45) rotate(125.43)"><tspan x="0" y="0">n</tspan></text>
    <text class="cls-1" transform="translate(64.47 140.77) rotate(121.14)"><tspan x="0" y="0">g</tspan></text>
    <text class="cls-1" transform="translate(54.22 157.89) rotate(117.03)"><tspan x="0" y="0">r</tspan></text>
    <text class="cls-1" transform="translate(46.24 173.57) rotate(113.11)"><tspan x="0" y="0">a</tspan></text>
    <text class="cls-1" transform="translate(39.85 188.46) rotate(109.54)"><tspan x="0" y="0">t</tspan></text>
    <text class="cls-1" transform="translate(33.78 205.7) rotate(105.58)"><tspan x="0" y="0">u</tspan></text>
    <text class="cls-1" transform="translate(29.05 222.82) rotate(101.68)"><tspan x="0" y="0">l</tspan></text>
    <text class="cls-1" transform="translate(25.49 240.15) rotate(97.76)"><tspan x="0" y="0">a</tspan></text>
    <text class="cls-1" transform="translate(23.28 256.17) rotate(94.23)"><tspan x="0" y="0">t</tspan></text>
    <text class="cls-1" transform="translate(22.08 274.15) rotate(91.37)"><tspan x="0" y="0">i</tspan></text>
    <text class="cls-1" transform="translate(21.72 282.7) rotate(88.15)"><tspan x="0" y="0">o</tspan></text>
    <text class="cls-1" transform="translate(22.49 304.51) rotate(83.55)"><tspan x="0" y="0">n</tspan></text>
    <text class="cls-1" transform="translate(24.89 324.97) rotate(79.36)"><tspan x="0" y="0">s</tspan></text>
    <text class="cls-1" transform="translate(28.23 342.07) rotate(76.48)"><tspan x="0" y="0"> </tspan></text>
    <text class="cls-1" transform="translate(30.21 350.65) rotate(73.66)"><tspan x="0" y="0">y</tspan></text>
    <text class="cls-1" transform="translate(34.46 365.49) rotate(69.77)"><tspan x="0" y="0">o</tspan></text>
    <text class="cls-1" transform="translate(42.09 385.87) rotate(65.42)"><tspan x="0" y="0">u</tspan></text>
    <text class="cls-1" transform="translate(49.48 401.73) rotate(62.54)"><tspan x="0" y="0"> </tspan></text>
    <text class="cls-1" transform="translate(53.43 409.96) rotate(58.47)"><tspan x="0" y="0">w</tspan></text>
    <text class="cls-1" transform="translate(68.47 434.07) rotate(52.98)"><tspan x="0" y="0">o</tspan></text>
    <text class="cls-1" transform="translate(81.69 451.48) rotate(48.36)"><tspan x="0" y="0">n</tspan></text>
    <text class="cls-1" transform="translate(95.34 466.56) rotate(45.19)"><tspan x="0" y="0"> </tspan></text>
    <text class="cls-1" transform="translate(101.48 472.88) rotate(42.28)"><tspan x="0" y="0">t</tspan></text>
    <text class="cls-1" transform="translate(115.05 485.19) rotate(38.23)"><tspan x="0" y="0">h</tspan></text>
    <text class="cls-1" transform="translate(130.03 496.94) rotate(34.09)"><tspan x="0" y="0">e</tspan></text>
    <text class="cls-1" transform="translate(145.64 507.32) rotate(31.08)"><tspan x="0" y="0"> </tspan></text>
    <text class="cls-1" transform="translate(153.16 512.01) rotate(27.96)"><tspan x="0" y="0">g</tspan></text>
    <text class="cls-1" transform="translate(170.84 521.31) rotate(23.78)"><tspan x="0" y="0">a</tspan></text>
    <text class="cls-1" transform="translate(187.64 528.86) rotate(18.76)"><tspan x="0" y="0">m</tspan></text>
    <text class="cls-1" transform="translate(213.57 537.42) rotate(13.64)"><tspan x="0" y="0">e</tspan></text>
    <text class="cls-1" transform="translate(231.83 541.69) rotate(10.61)"><tspan x="0" y="0">!</tspan></text>
    <text class="cls-1" transform="translate(240.19 543.25) rotate(8.74)"><tspan x="0" y="0">	</tspan></text>
    <text class="cls-1" transform="translate(266.5 546.36) rotate(2.98)"><tspan x="0" y="0">	</tspan></text>
    <text class="cls-1" transform="translate(304.46 546.21) rotate(-5.19)"><tspan x="0" y="0">	</tspan></text>
    <text class="cls-1" transform="translate(342.07 540.61) rotate(-13.52)"><tspan x="0" y="0">	</tspan></text>
    <text class="cls-1" transform="translate(378.48 529.61) rotate(-21.89)"><tspan x="0" y="0">	</tspan></text>
    <text class="cls-1" transform="translate(412.9 513.43) rotate(-30.23)"><tspan x="0" y="0">	</tspan></text>
    <text class="cls-1" transform="translate(444.94 492.37) rotate(-39.78)"><tspan x="0" y="0">C</tspan></text>
    <text class="cls-1" transform="translate(460.51 479.39) rotate(-44.35)"><tspan x="0" y="0">o</tspan></text>
    <text class="cls-1" transform="translate(476.07 464.07) rotate(-48.96)"><tspan x="0" y="0">n</tspan></text>
    <text class="cls-1" transform="translate(489.2 448.95) rotate(-53.24)"><tspan x="0" y="0">g</tspan></text>
    <text class="cls-1" transform="translate(501.09 432.91) rotate(-57.34)"><tspan x="0" y="0">r</tspan></text>
    <text class="cls-1" transform="translate(510.56 418.09) rotate(-61.23)"><tspan x="0" y="0">a</tspan></text>
    <text class="cls-1" transform="translate(518.37 403.93) rotate(-64.79)"><tspan x="0" y="0">t</tspan></text>
    <text class="cls-1" transform="translate(526.13 387.35) rotate(-68.75)"><tspan x="0" y="0">u</tspan></text>
    <text class="cls-1" transform="translate(532.52 370.81) rotate(-72.65)"><tspan x="0" y="0">l</tspan></text>
    <text class="cls-1" transform="translate(537.79 353.88) rotate(-76.59)"><tspan x="0" y="0">a</tspan></text>
    <text class="cls-1" transform="translate(541.57 338.15) rotate(-80.15)"><tspan x="0" y="0">t</tspan></text>
    <text class="cls-1" transform="translate(544.52 320.36) rotate(-83.05)"><tspan x="0" y="0">i</tspan></text>
    <text class="cls-1" transform="translate(545.71 311.9) rotate(-86.31)"><tspan x="0" y="0">o</tspan></text>
    <text class="cls-1" transform="translate(547.06 290.2) rotate(-90.93)"><tspan x="0" y="0">n</tspan></text>
    <text class="cls-1" transform="translate(546.66 269.74) rotate(-94.96)"><tspan x="0" y="0">s</tspan></text>
    <text class="cls-1" transform="translate(545.03 252.39) rotate(-97.82)"><tspan x="0" y="0"> </tspan></text>
    <text class="cls-1" transform="translate(543.91 243.65) rotate(-100.63)"><tspan x="0" y="0">y</tspan></text>
    <text class="cls-1" transform="translate(541.17 228.49) rotate(-104.51)"><tspan x="0" y="0">o</tspan></text>
    <text class="cls-1" transform="translate(535.6 207.42) rotate(-108.87)"><tspan x="0" y="0">u</tspan></text>
    <text class="cls-1" transform="translate(529.82 190.93) rotate(-111.76)"><tspan x="0" y="0"> </tspan></text>
    <text class="cls-1" transform="translate(526.72 182.34) rotate(-115.84)"><tspan x="0" y="0">w</tspan></text>
    <text class="cls-1" transform="translate(514.13 156.84) rotate(-121.36)"><tspan x="0" y="0">o</tspan></text>
    <text class="cls-1" transform="translate(502.69 138.21) rotate(-126)"><tspan x="0" y="0">n</tspan></text>
    <text class="cls-1" transform="translate(490.59 121.86) rotate(-129.17)"><tspan x="0" y="0"> </tspan></text>
    <text class="cls-1" transform="translate(485.1 114.96) rotate(-132.09)"><tspan x="0" y="0">t</tspan></text>
    <text class="cls-1" transform="translate(472.81 101.39) rotate(-136.13)"><tspan x="0" y="0">h</tspan></text>
    <text class="cls-1" transform="translate(459.06 88.23) rotate(-140.26)"><tspan x="0" y="0">e</tspan></text>
    <text class="cls-1" transform="translate(444.55 76.36) rotate(-143.26)"><tspan x="0" y="0"> </tspan></text>
    <text class="cls-1" transform="translate(437.51 70.94) rotate(-146.37)"><tspan x="0" y="0">g</tspan></text>
    <text class="cls-1" transform="translate(420.86 59.95) rotate(-150.53)"><tspan x="0" y="0">a</tspan></text>
    <text class="cls-1" transform="translate(404.89 50.77) rotate(-155.53)"><tspan x="0" y="0">m</tspan></text>
    <text class="cls-1" transform="translate(379.96 39.67) rotate(-160.64)"><tspan x="0" y="0">e</tspan></text>
    <text class="cls-1" transform="translate(362.21 33.6) rotate(-163.67)"><tspan x="0" y="0">!</tspan></text>
    <text class="cls-1" transform="translate(354.05 31.22) rotate(-165.55)"><tspan x="0" y="0"> </tspan></text>
  </g>
</svg>