<?xml version="1.0" encoding="UTF-8"?>
<svg id="Rotating_copy" data-name="Rotating copy" xmlns="http://www.w3.org/2000/svg" viewBox="0 0 2048 2048">
  <defs>
    <style>
      .cls-1 {
        fill: #ececec;
      }

      .cls-2 {
        fill: #67dbd2;
        font-family: Jungle-Hope, 'Jungle Hope';
        font-size: 108.04px;
        stroke: #1f7569;
        stroke-miterlimit: 10;
        stroke-width: 4.68px;
      }
    </style>
  </defs>
  <g id="Congratz_copy" data-name="Congratz copy">
    <path class="cls-1" d="m1024,206.65c110.43,0,217.45,21.58,318.09,64.15,48.39,20.47,95.07,45.81,138.76,75.32,43.32,29.27,84.07,62.89,121.11,99.93,37.04,37.04,70.66,77.78,99.93,121.11,29.51,43.69,54.86,90.37,75.32,138.76,42.57,100.64,64.15,207.66,64.15,318.09s-21.58,217.45-64.15,318.09c-20.47,48.39-45.81,95.07-75.32,138.76-29.27,43.32-62.89,84.07-99.93,121.11-37.04,37.04-77.78,70.66-121.11,99.93-43.69,29.51-90.37,54.86-138.76,75.32-100.64,42.57-207.66,64.15-318.09,64.15s-217.45-21.58-318.09-64.15c-48.39-20.47-95.07-45.81-138.76-75.32-43.32-29.27-84.07-62.89-121.11-99.93-37.04-37.04-70.66-77.78-99.93-121.11-29.51-43.69-54.86-90.37-75.32-138.76-42.57-100.64-64.15-207.66-64.15-318.09s21.58-217.45,64.15-318.09c20.47-48.39,45.81-95.07,75.32-138.76,29.27-43.32,62.89-84.07,99.93-121.11,37.04-37.04,77.78-70.66,121.11-99.93,43.69-29.51,90.37-54.86,138.76-75.32,100.64-42.57,207.66-64.15,318.09-64.15m0-203.47C460.22,3.18,3.18,460.22,3.18,1024s457.04,1020.82,1020.82,1020.82,1020.82-457.04,1020.82-1020.82S1587.78,3.18,1024,3.18h0Z"/>
    <text class="cls-2" transform="translate(375.31 335.47) rotate(134.62)"><tspan x="0" y="0">C</tspan></text>
    <text class="cls-2" transform="translate(324.04 387.5) rotate(130.05)"><tspan x="0" y="0">o</tspan></text>
    <text class="cls-2" transform="translate(273.58 447.91) rotate(125.43)"><tspan x="0" y="0">n</tspan></text>
    <text class="cls-2" transform="translate(231.87 506.72) rotate(121.13)"><tspan x="0" y="0">g</tspan></text>
    <text class="cls-2" transform="translate(194.96 568.36) rotate(117.03)"><tspan x="0" y="0">r</tspan></text>
    <text class="cls-2" transform="translate(166.24 624.86) rotate(113.11)"><tspan x="0" y="0">a</tspan></text>
    <text class="cls-2" transform="translate(143.25 678.43) rotate(109.54)"><tspan x="0" y="0">t</tspan></text>
    <text class="cls-2" transform="translate(121.36 740.59) rotate(105.57)"><tspan x="0" y="0">u</tspan></text>
    <text class="cls-2" transform="translate(104.33 802.16) rotate(101.68)"><tspan x="0" y="0">l</tspan></text>
    <text class="cls-2" transform="translate(91.51 864.65) rotate(97.75)"><tspan x="0" y="0">a</tspan></text>
    <text class="cls-2" transform="translate(83.54 922.36) rotate(94.22)"><tspan x="0" y="0">t</tspan></text>
    <text class="cls-2" transform="translate(79.26 987.09) rotate(91.37)"><tspan x="0" y="0">i</tspan></text>
    <text class="cls-2" transform="translate(77.95 1017.13) rotate(88.19)"><tspan x="0" y="0">o</tspan></text>
    <text class="cls-2" transform="translate(80.68 1095.74) rotate(83.59)"><tspan x="0" y="0">n</tspan></text>
    <text class="cls-2" transform="translate(89.28 1169.44) rotate(79.4)"><tspan x="0" y="0">s</tspan></text>
    <text class="cls-2" transform="translate(101.27 1231.03) rotate(76.52)"><tspan x="0" y="0"> </tspan></text>
    <text class="cls-2" transform="translate(108.38 1261.93) rotate(73.69)"><tspan x="0" y="0">y</tspan></text>
    <text class="cls-2" transform="translate(123.63 1315.38) rotate(69.8)"><tspan x="0" y="0">o</tspan></text>
    <text class="cls-2" transform="translate(151.1 1388.85) rotate(65.45)"><tspan x="0" y="0">u</tspan></text>
    <text class="cls-2" transform="translate(177.67 1445.92) rotate(62.57)"><tspan x="0" y="0"> </tspan></text>
    <text class="cls-2" transform="translate(191.85 1475.58) rotate(58.51)"><tspan x="0" y="0">w</tspan></text>
    <text class="cls-2" transform="translate(245.99 1562.46) rotate(53.01)"><tspan x="0" y="0">o</tspan></text>
    <text class="cls-2" transform="translate(293.53 1625.16) rotate(48.39)"><tspan x="0" y="0">n</tspan></text>
    <text class="cls-2" transform="translate(342.67 1679.51) rotate(45.22)"><tspan x="0" y="0"> </tspan></text>
    <text class="cls-2" transform="translate(364.8 1702.31) rotate(42.31)"><tspan x="0" y="0">t</tspan></text>
    <text class="cls-2" transform="translate(413.65 1746.66) rotate(38.26)"><tspan x="0" y="0">h</tspan></text>
    <text class="cls-2" transform="translate(467.55 1789) rotate(34.12)"><tspan x="0" y="0">e</tspan></text>
    <text class="cls-2" transform="translate(523.72 1826.4) rotate(31.11)"><tspan x="0" y="0"> </tspan></text>
    <text class="cls-2" transform="translate(550.85 1843.31) rotate(27.99)"><tspan x="0" y="0">g</tspan></text>
    <text class="cls-2" transform="translate(614.47 1876.85) rotate(23.81)"><tspan x="0" y="0">a</tspan></text>
    <text class="cls-2" transform="translate(674.95 1904.08) rotate(18.79)"><tspan x="0" y="0">m</tspan></text>
    <text class="cls-2" transform="translate(768.36 1934.96) rotate(13.67)"><tspan x="0" y="0">e</tspan></text>
    <text class="cls-2" transform="translate(834.08 1950.38) rotate(10.64)"><tspan x="0" y="0">!</tspan></text>
    <text class="cls-2" transform="translate(864.18 1956.01) rotate(8.78)"><tspan x="0" y="0">	</tspan></text>
    <text class="cls-2" transform="translate(958.95 1967.26) rotate(3.01)"><tspan x="0" y="0">	</tspan></text>
    <text class="cls-2" transform="translate(1095.08 1966.83) rotate(-5.13)"><tspan x="0" y="0">	</tspan></text>
    <text class="cls-2" transform="translate(1230.54 1946.84) rotate(-13.45)"><tspan x="0" y="0">	</tspan></text>
    <text class="cls-2" transform="translate(1361.74 1907.35) rotate(-21.83)"><tspan x="0" y="0">	</tspan></text>
    <text class="cls-2" transform="translate(1485.77 1849.22) rotate(-30.17)"><tspan x="0" y="0">	</tspan></text>
    <text class="cls-2" transform="translate(1601.25 1773.49) rotate(-39.72)"><tspan x="0" y="0">C</tspan></text>
    <text class="cls-2" transform="translate(1657.37 1726.8) rotate(-44.29)"><tspan x="0" y="0">o</tspan></text>
    <text class="cls-2" transform="translate(1713.52 1671.68) rotate(-48.9)"><tspan x="0" y="0">n</tspan></text>
    <text class="cls-2" transform="translate(1760.85 1617.26) rotate(-53.18)"><tspan x="0" y="0">g</tspan></text>
    <text class="cls-2" transform="translate(1803.69 1559.57) rotate(-57.27)"><tspan x="0" y="0">r</tspan></text>
    <text class="cls-2" transform="translate(1837.84 1506.26) rotate(-61.17)"><tspan x="0" y="0">a</tspan></text>
    <text class="cls-2" transform="translate(1866.06 1455.24) rotate(-64.73)"><tspan x="0" y="0">t</tspan></text>
    <text class="cls-2" transform="translate(1894.04 1395.62) rotate(-68.69)"><tspan x="0" y="0">u</tspan></text>
    <text class="cls-2" transform="translate(1917.15 1336.05) rotate(-72.58)"><tspan x="0" y="0">l</tspan></text>
    <text class="cls-2" transform="translate(1936.16 1275.12) rotate(-76.53)"><tspan x="0" y="0">a</tspan></text>
    <text class="cls-2" transform="translate(1949.86 1218.45) rotate(-80.09)"><tspan x="0" y="0">t</tspan></text>
    <text class="cls-2" transform="translate(1960.53 1154.42) rotate(-82.99)"><tspan x="0" y="0">i</tspan></text>
    <text class="cls-2" transform="translate(1964.86 1123.93) rotate(-86.25)"><tspan x="0" y="0">o</tspan></text>
    <text class="cls-2" transform="translate(1969.83 1045.71) rotate(-90.93)"><tspan x="0" y="0">n</tspan></text>
    <text class="cls-2" transform="translate(1968.42 972.02) rotate(-94.91)"><tspan x="0" y="0">s</tspan></text>
    <text class="cls-2" transform="translate(1962.61 909.56) rotate(-97.76)"><tspan x="0" y="0"> </tspan></text>
    <text class="cls-2" transform="translate(1958.62 878.11) rotate(-100.57)"><tspan x="0" y="0">y</tspan></text>
    <text class="cls-2" transform="translate(1948.79 823.44) rotate(-104.45)"><tspan x="0" y="0">o</tspan></text>
    <text class="cls-2" transform="translate(1928.8 747.58) rotate(-108.81)"><tspan x="0" y="0">u</tspan></text>
    <text class="cls-2" transform="translate(1908.06 688.11) rotate(-111.7)"><tspan x="0" y="0"> </tspan></text>
    <text class="cls-2" transform="translate(1896.91 657.18) rotate(-115.78)"><tspan x="0" y="0">w</tspan></text>
    <text class="cls-2" transform="translate(1851.67 565.34) rotate(-121.31)"><tspan x="0" y="0">o</tspan></text>
    <text class="cls-2" transform="translate(1810.56 498.23) rotate(-125.94)"><tspan x="0" y="0">n</tspan></text>
    <text class="cls-2" transform="translate(1767.02 439.28) rotate(-129.12)"><tspan x="0" y="0"> </tspan></text>
    <text class="cls-2" transform="translate(1747.25 414.41) rotate(-132.03)"><tspan x="0" y="0">t</tspan></text>
    <text class="cls-2" transform="translate(1703 365.45) rotate(-136.08)"><tspan x="0" y="0">h</tspan></text>
    <text class="cls-2" transform="translate(1653.58 318.04) rotate(-140.21)"><tspan x="0" y="0">e</tspan></text>
    <text class="cls-2" transform="translate(1601.37 275.25) rotate(-143.2)"><tspan x="0" y="0"> </tspan></text>
    <text class="cls-2" transform="translate(1576.04 255.74) rotate(-146.31)"><tspan x="0" y="0">g</tspan></text>
    <text class="cls-2" transform="translate(1516.09 216.07) rotate(-150.47)"><tspan x="0" y="0">a</tspan></text>
    <text class="cls-2" transform="translate(1458.63 182.95) rotate(-155.48)"><tspan x="0" y="0">m</tspan></text>
    <text class="cls-2" transform="translate(1368.81 142.9) rotate(-160.59)"><tspan x="0" y="0">e</tspan></text>
    <text class="cls-2" transform="translate(1304.93 120.98) rotate(-163.62)"><tspan x="0" y="0">!</tspan></text>
    <text class="cls-2" transform="translate(1275.53 112.36) rotate(-165.5)"><tspan x="0" y="0"> </tspan></text>
  </g>
</svg>